<?xml version="1.0" encoding="UTF-8"?><svg id="Layer_1" xmlns="http://www.w3.org/2000/svg" viewBox="0 0 1471.75 1280.31"><ellipse cx="740.07" cy="640.19" rx="732.63" ry="639.04" fill="none" opacity=".37" stroke="#a8383c" stroke-miterlimit="10" stroke-width="6"/><path d="M353.3,434.85c-5.94,0-7.8-4.43-8.92-7.51-5.02-14.44-5.02-34.27-5.02-40.24,0-1.93,1.11-2.89,2.79-2.89h18.02c2.6,0,3.72.38,3.72,1.54,0,.39-.19,1.16-1.49,2.12-2.23,1.54-2.6,4.62-2.6,9.43,0,8.86,7.43,13.29,17.09,13.29,14.86,0,22.66-9.63,22.66-18.87,0-13.29-22.11-16.94-34.74-16.94-22.11,0-22.29-21.37-22.29-25.03,0-19.64,7.99-37.54,15.05-45.44.74-.77,3.72-4.24,8.55-4.24h37.9c5.39,0,8.36,3.08,8.36,8.66v35.04c0,5.58-2.97,8.09-8.36,8.09h-24.15c-1.67,0-2.79-1.16-2.79-2.89v-10.59c0-2.7.19-3.66,1.11-3.66.56,0,1.3.58,2.42,1.93,2.23,2.89,5.02,4.62,7.62,4.62,7.8,0,10.22-3.66,10.22-7.12,0-4.62-4.64-10.2-17.83-10.2s-22.66,10.4-22.66,20.22,2.04,19.45,25.08,19.45c19.32,0,34.55,11.17,34.55,32.15,0,12.32-2.79,28.88-7.25,36.58-1.49,2.5-4.27,2.5-7.06,2.5h-49.97Z" fill="#8e331a"/><path d="M433.74,434.85c-1.86,0-2.79-.19-2.79-.96,0-.38.37-.96.93-1.93,5.2-8.09,9.66-23.68,9.66-37.93v-42.94c-3.9.77-7.43,1.73-10.4,3.27-.74.39-1.3.58-1.86.58-.93,0-1.49-.77-1.49-1.73v-16.37c0-3.08.56-5.39,6.5-4.81,2.23.19,4.83.39,7.25.39-.19-17.14-2.6-25.22-7.8-29.46-.93-.77-1.3-1.35-1.3-1.93s1.11-.96,3.16-.96h17.65c3.53,0,3.53.39,3.53,2.89v28.3c3.72-.58,7.25-1.54,10.03-2.89.74-.38,1.49-.58,2.04-.58.93,0,1.49.77,1.49,1.73v15.98c0,3.27-.56,5.58-6.69,5.01-2.23-.19-4.46-.39-6.87-.39v43.9c0,14.44,4.27,29.84,9.47,37.93.56.96.74,1.54.74,1.93,0,.77-.74.96-2.6.96h-30.65Z" fill="#8e331a"/><path d="M491.7,434.85c-2.23,0-4.64,0-5.94-1.93-4.46-6.93-6.32-19.06-6.32-32.73,0-25.99,7.06-57.18,15.23-65.65.56-.58,3.16-3.27,7.06-3.27h25.45c4.27,0,6.69,2.7,7.25,3.27,8.17,8.47,15.23,39.66,15.23,65.65,0,13.67-1.86,25.8-6.32,32.73-1.3,1.93-3.53,1.93-5.94,1.93h-45.7ZM535.54,381.52c0-20.22-10.03-30.42-20.99-30.42s-20.81,10.59-20.81,30.42c0,17.33,7.43,33.31,20.81,33.31s20.99-15.02,20.99-33.31Z" fill="#8e331a"/><path d="M559.5,433.89c0-.38.37-.96.93-1.93,5.2-8.09,9.47-23.68,9.47-37.93v-28.5c0-18.48-2.23-26.96-7.62-31.58-.93-.77-1.3-1.35-1.3-1.73,0-.58.93-.96,3.16-.96h18.76c1.67,0,2.97,1.16,2.79,2.89l-.56,3.85c-.37,2.7,1.86,3.47,3.34.96,2.42-3.66,5.2-7.7,7.43-7.7h8.73c8.17,0,11.7,3.85,13.75,11.36,7.43,27.34.93,31.77-15.6,31.77-3.72,0-3.16-2.12-1.3-3.66,3.53-3.08,5.76-7.7,5.76-12.13,0-4.81-4.09-7.7-8.73-7.7-9.1,0-13.75,10.4-13.75,27.34v15.79c0,14.44,4.46,29.84,9.47,37.93.56.96.93,1.54.93,1.93,0,.77-.93.96-2.79.96h-30.1c-1.86,0-2.79-.19-2.79-.96Z" fill="#8e331a"/><path d="M649.42,473.36c-4.27,0-6.32-2.12-6.87-6.55l-1.67-13.29c-.19-1.35.74-1.73,2.23-1.73,5.02,0,17.09,5.39,23.22,5.39,9.1,0,14.49-10.78,15.61-23.1.19-2.31-1.3-3.27-3.34-2.12-5.39,2.89-10.78,4.24-15.98,4.24-17.28,0-31.95-16.75-31.95-55.06,0-9.24,2.42-41.2,6.32-47.36.93-1.54,2.6-1.93,5.95-1.93h13.38c1.86,0,2.6.19,2.6.96,0,.39-.19.96-.74,1.93-9.29,17.91-11.15,37.74-11.15,52.18,0,15.4,8.36,25.22,19.32,25.22s18.76-9.05,18.76-23.68c0-17.52-1.49-33.89-11.33-53.72-.56-.96-.74-1.54-.74-1.93,0-.77.74-.96,2.6-.96h13.38c3.53,0,5.02.38,5.94,1.93,4.09,6.35,6.32,30.81,6.32,45.82,0,22.14-4.09,66.81-12.63,87.22-2.04,4.24-5.57,6.55-10.03,6.55h-29.17Z" fill="#8e331a"/><path d="M717.59,434.85c-1.86,0-2.79-.19-2.79-.96,0-.38.37-.96.93-1.93,5.2-8.09,9.66-23.68,9.66-37.93v-42.94c-3.9.77-7.43,1.73-10.4,3.27-.74.39-1.3.58-1.86.58-.93,0-1.49-.77-1.49-1.73v-16.37c0-3.08.56-5.39,6.5-4.81,2.23.19,4.83.39,7.25.39-.19-17.14-2.6-25.22-7.8-29.46-.93-.77-1.3-1.35-1.3-1.93s1.12-.96,3.16-.96h17.65c3.53,0,3.53.39,3.53,2.89v28.3c3.72-.58,7.25-1.54,10.03-2.89.74-.38,1.49-.58,2.04-.58.93,0,1.49.77,1.49,1.73v15.98c0,3.27-.56,5.58-6.69,5.01-2.23-.19-4.46-.39-6.87-.39v43.9c0,14.44,4.27,29.84,9.47,37.93.56.96.74,1.54.74,1.93,0,.77-.74.96-2.6.96h-30.65Z" fill="#8e331a"/><path d="M775.37,434.85c-2.23,0-3.53-.19-5.76-3.66-3.34-5.39-6.32-17.52-6.32-31,0-26.19,7.06-57.57,15.05-65.85.74-.77,3.16-3.08,7.06-3.08h39.01c4.46,0,7.06,2.31,7.06,6.55v37.93c0,4.24-2.6,6.74-7.06,6.74h-36.78c-1.49,0-2.42-.96-2.42-2.31v-10.2c0-2.12.19-2.89.74-2.89.37,0,1.3.58,1.67.96,3.53,2.7,10.96,4.04,16.53,4.04,10.4,0,13-4.81,13-11.17,0-7.7-7.99-9.82-15.23-9.82-17.46,0-24.34,12.32-24.34,30.23,0,15.4,6.69,31.38,22.48,31.38,17.09,0,18.02-18.29,26.94-18.29,3.34,0,4.83,2.31,4.46,6.74l-2.42,26.96c-.37,4.62-2.6,6.74-6.87,6.74h-46.82Z" fill="#8e331a"/><path d="M845.03,434.85c-1.86,0-2.79-.19-2.79-.96,0-.38.37-.96.93-1.93,5.2-8.09,9.66-23.68,9.66-37.93v-59.69c0-18.48-2.42-26.96-7.8-31.38-.93-.77-1.3-1.35-1.3-1.93s1.12-.96,3.16-.96h18.02c2.42,0,2.79,0,2.79,2.89v91.07c0,14.44,4.27,29.84,9.47,37.93.56.96.74,1.54.74,1.93,0,.77-.74.96-2.6.96h-30.28Z" fill="#8e331a"/><path d="M888.87,434.85c-1.86,0-2.79-.19-2.79-.96,0-.38.37-.96.93-1.93,5.2-8.09,9.66-23.68,9.66-37.93v-59.69c0-18.48-2.42-26.96-7.8-31.38-.93-.77-1.3-1.35-1.3-1.93s1.12-.96,3.16-.96h18.02c2.42,0,2.79,0,2.79,2.89v91.07c0,14.44,4.27,29.84,9.47,37.93.56.96.74,1.54.74,1.93,0,.77-.74.96-2.6.96h-30.28Z" fill="#8e331a"/><path d="M932.9,434.85c-1.86,0-2.79-.19-2.79-.96,0-.38.37-.96.93-1.93,5.2-8.09,9.47-23.49,9.47-37.93v-28.5c0-18.48-2.23-26.96-7.62-31.58-.93-.77-1.3-1.35-1.3-1.73,0-.58.93-.96,3.16-.96h16.91c3.16,0,3.72.38,3.72,2.7v60.07c0,14.44,4.46,29.84,9.47,37.93.56.96.93,1.54.93,1.93,0,.77-.93.96-2.79.96h-30.1ZM940.52,319.72c-.93,0-1.49,0-1.86-.39-1.49-1.35-1.86-3.85-1.86-6.35,0-5.2,2.04-10.59,4.46-12.32.19,0,.93-.58,2.23-.58h5.76c1.3,0,2.04.58,2.23.58,2.42,1.73,4.46,7.12,4.46,12.32,0,2.5-.37,5.01-1.86,6.35-.37.39-.93.39-1.86.39h-11.7Z" fill="#8e331a"/><path d="M997.55,331.27c1.67,0,2.97,1.16,2.79,2.89l-.56,3.85c-.37,2.7,1.86,3.47,3.34.96,2.42-3.66,5.2-7.7,7.43-7.7h20.25c2.42,0,3.9.58,5.76,2.12,6.32,5.2,16.53,30.61,16.53,66.42,0,17.33-2.23,25.8-6.5,33.31-1.3,2.12-4.64,1.73-7.06,1.73h-10.59c-1.86,0-2.79-.19-2.79-.77,0-.39.37-1.16.93-1.93,8.92-14.06,10.59-31.58,10.59-49.87,0-19.83-8.55-31.19-20.99-31.19-8.92,0-16.72,4.04-16.72,20.6v22.33c0,14.44,6.13,29.84,11.33,37.93.56.96.74,1.54.74,1.93,0,.77-.74.96-2.6.96h-32.14c-1.86,0-2.79-.19-2.79-.96,0-.38.37-.96.93-1.93,5.2-8.09,9.66-23.68,9.66-37.93v-18.68c0-18.48-2.23-36.77-7.62-41.4-.93-.77-1.3-1.35-1.3-1.73,0-.58.93-.96,3.16-.96h18.21Z" fill="#8e331a"/><path d="M1078.35,466.81l-1.67-13.29c-.19-1.35.74-1.73,2.23-1.73,5.02,0,17.09,5.39,23.22,5.39,14.49,0,18.02-5.39,18.02-27.34v-64.31c0-12.32-2.42-14.44-15.42-14.44-14.68,0-24.34,13.09-24.34,29.46,0,20.79,5.76,29.46,20.62,29.46,2.6,0,5.76-1.35,5.76-4.81,0-1.35-.56-3.08-1.67-5.2-.56-1.15-.93-2.12-.93-2.89,0-2.12,2.04-3.47,5.2-3.47,4.09,0,5.39,2.31,5.39,6.74l-.19,27.73c0,4.43-2.42,6.74-6.87,6.74h-28.8c-2.23,0-4.64,0-5.76-1.93-4.46-6.93-6.32-19.25-6.32-32.73,0-26.19,6.87-57.38,15.05-65.85.56-.58,3.16-3.08,7.06-3.08h21.92c2.23,0,5.02,4.04,7.43,7.7,1.49,2.5,3.72,1.73,3.34-.96l-.56-3.85c-.19-1.73,1.11-2.89,2.79-2.89h17.09c2.04,0,3.16.38,3.16.96s-.37,1.16-1.3,1.93c-5.39,4.43-7.8,12.9-7.8,31.38v64.88c0,28.5-6.5,42.94-19.51,42.94h-30.28c-4.27,0-6.32-2.12-6.87-6.55Z" fill="#8e331a"/><path d="M560.99,597.17c-1.67,0-2.97-1.16-2.79-2.89l.56-3.85c.37-2.7-1.86-3.47-3.34-.96-2.42,3.66-5.2,7.7-7.43,7.7h-24.34c-15.23,0-18.21-18.29-18.21-34.66,0-25.99,7.06-57.18,15.23-65.65.37-.77,2.97-3.27,7.25-3.27h22.48c5.39,0,10.77,21.56,10.77-1.93,0-15.79-1.67-21.37-7.8-26.38-.74-.77-1.3-1.35-1.3-1.93s1.11-.96,3.16-.96h15.42c3.9,0,4.64,5.39,4.64,15.6v78.36c0,14.25,4.27,29.84,9.47,37.93.56.96.93,1.54.93,1.92,0,.77-.93.96-2.79.96h-21.92ZM540,573.68c15.05,0,20.81-6.55,20.81-24.26v-20.02c0-13.86-5.76-15.98-20.81-15.98-10.96,0-20.99,13.86-20.99,30.42,0,20.41,7.25,29.84,20.99,29.84Z" fill="#8e331a"/><path d="M592.39,596.21c0-.38.37-.96.93-1.92,5.2-8.09,9.47-23.68,9.47-37.93v-28.5c0-18.48-2.23-26.96-7.62-31.58-.93-.77-1.3-1.35-1.3-1.73,0-.58.93-.96,3.16-.96h18.76c1.67,0,2.97,1.16,2.79,2.89l-.56,3.85c-.37,2.7,1.86,3.47,3.34.96,2.42-3.66,5.2-7.7,7.43-7.7h8.73c8.17,0,11.7,3.85,13.75,11.36,7.43,27.34.93,31.77-15.61,31.77-3.72,0-3.16-2.12-1.3-3.66,3.53-3.08,5.76-7.7,5.76-12.13,0-4.81-4.09-7.7-8.73-7.7-9.1,0-13.75,10.4-13.75,27.34v15.79c0,14.44,4.46,29.84,9.47,37.93.56.96.93,1.54.93,1.92,0,.77-.93.96-2.79.96h-30.1c-1.86,0-2.79-.19-2.79-.96Z" fill="#8e331a"/><path d="M662.61,597.17c-1.86,0-2.79-.19-2.79-.96,0-.38.37-.96.93-1.92,5.2-8.09,9.47-23.49,9.47-37.93v-28.5c0-18.48-2.23-26.96-7.62-31.58-.93-.77-1.3-1.35-1.3-1.73,0-.58.93-.96,3.16-.96h16.91c3.16,0,3.72.38,3.72,2.7v60.07c0,14.44,4.46,29.84,9.47,37.93.56.96.93,1.54.93,1.92,0,.77-.93.96-2.79.96h-30.1ZM670.22,482.03c-.93,0-1.49,0-1.86-.39-1.49-1.35-1.86-3.85-1.86-6.35,0-5.2,2.04-10.59,4.46-12.32.19,0,.93-.58,2.23-.58h5.76c1.3,0,2.04.58,2.23.58,2.42,1.73,4.46,7.12,4.46,12.32,0,2.5-.37,5.01-1.86,6.35-.37.39-.93.39-1.86.39h-11.7Z" fill="#8e331a"/><path d="M725.77,597.17c-3.9,0-6.69-2.5-7.06-3.27-8.17-8.47-15.23-39.66-15.23-65.65,0-13.67,1.3-25.8,5.76-32.73,1.3-1.93,3.72-1.93,5.94-1.93h15.23c1.86,0,2.79.19,2.79.77s-.37,1.16-.93,1.93c-10.59,14.06-13.93,23.87-13.93,41.01,0,23.49,14.68,36.97,20.25,36.97s19.13-13.48,19.13-36.97c0-17.14-3.53-26.96-14.12-41.01-.56-.77-.93-1.35-.93-1.93s.93-.77,2.79-.77h15.23c2.42,0,4.64,0,5.94,1.93,4.46,6.93,5.95,19.06,5.95,32.73,0,25.99-7.06,57.18-15.23,65.65-.37.77-2.97,3.27-7.25,3.27h-24.34Z" fill="#8e331a"/><path d="M796.73,597.17c-2.23,0-3.53-.19-5.76-3.66-3.34-5.39-6.32-17.52-6.32-31,0-26.19,7.06-57.57,15.05-65.85.74-.77,3.16-3.08,7.06-3.08h39.01c4.46,0,7.06,2.31,7.06,6.55v37.93c0,4.24-2.6,6.74-7.06,6.74h-36.78c-1.49,0-2.42-.96-2.42-2.31v-10.2c0-2.12.19-2.89.74-2.89.37,0,1.3.58,1.67.96,3.53,2.7,10.96,4.04,16.53,4.04,10.4,0,13-4.81,13-11.17,0-7.7-7.99-9.82-15.23-9.82-17.46,0-24.34,12.32-24.34,30.23,0,15.4,6.69,31.38,22.48,31.38,17.09,0,18.02-18.29,26.94-18.29,3.34,0,4.83,2.31,4.46,6.74l-2.42,26.96c-.37,4.62-2.6,6.74-6.87,6.74h-46.82Z" fill="#8e331a"/><path d="M900.95,525.36c0-2.12.19-2.89.93-2.89.56,0,1.12.38,2.04,1.54,1.86,2.12,4.09,3.47,6.32,3.47,5.39,0,6.69-4.43,6.69-7.12,0-3.66-3.9-8.47-14.86-8.47-11.52,0-18.95,7.89-18.95,15.6s7.43,13.48,23.78,15.21c23.22,2.5,28.24,16.37,28.24,29.84,0,7.32-2.23,15.21-5.76,20.99-2.23,3.47-3.53,3.66-5.76,3.66h-46.82c-4.27,0-6.5-2.12-6.87-6.74l-2.42-26.96c-.37-4.43,1.11-6.74,4.46-6.74,8.92,0,11.33,18.29,28.42,18.29,11.33,0,17.46-4.81,17.46-11.94,0-8.66-14.3-8.86-21.18-10.01-17.28-2.89-29.17-14.25-29.17-26.95,0-10.4,4.46-20.79,12.82-29.46.56-.58,2.97-3.08,7.06-3.08h36.78c4.46,0,6.87,2.31,6.87,6.55v29.27c0,4.24-2.42,6.16-6.87,6.16h-20.81c-1.49,0-2.42-.77-2.42-2.12v-8.09Z" fill="#8e331a"/><path d="M297.39,661.49c0-3.08.56-5.2,6.5-4.81l5.94.38v-7.89c0-14.25,8.92-24.45,21.18-24.45h6.5c4.27,0,6.87,2.12,6.87,6.55l.19,13.29c0,1.73-.37,2.89-1.11,2.89-.56,0-1.11-.58-1.86-1.54-2.6-4.24-5.57-5.01-7.99-5.01-6.5,0-8.73,3.66-8.73,12.32v2.89c3.53-.77,6.87-1.73,9.85-3.08.74-.39,1.49-.58,2.04-.58.93,0,1.49.77,1.49,1.73v15.98c0,3.27-.56,5.39-6.69,5.01l-6.69-.39v43.9c0,14.44,6.13,29.84,11.33,37.93.56.96.74,1.54.74,1.92,0,.77-.74.96-2.6.96h-32.33c-1.86,0-2.79-.19-2.79-.96,0-.38.37-.96.93-1.92,5.2-8.09,9.66-23.68,9.66-37.93v-42.74c-3.34.77-6.32,1.73-9.1,3.08-.74.38-1.3.58-1.86.58-.93,0-1.49-.77-1.49-1.73v-16.37Z" fill="#8e331a"/><path d="M405.51,759.49c-1.67,0-2.97-1.16-2.79-2.89l.56-3.85c.37-2.7-1.86-3.47-3.34-.96-2.42,3.66-5.2,7.7-7.43,7.7h-30.84c-2.42,0-4.64,0-5.94-1.93-4.46-6.93-5.94-21.37-5.94-46.4,0-13.67,3.72-46.4,9.29-53.33,1.3-1.92,3.16-1.92,5.2-1.92h14.68c1.67,0,2.42.19,2.42.77s-.19,1.15-.74,1.92c-9.66,14.06-16.53,26.57-16.53,45.44s8.55,33.69,20.99,33.69c8.92,0,16.72-6.55,16.72-23.1v-24.45c0-18.48-2.23-26.96-7.8-31.58-.74-.77-1.3-1.35-1.3-1.73,0-.58,1.11-.96,3.16-.96h26.57c2.04,0,3.16.38,3.16.96,0,.38-.56.96-1.3,1.73-5.39,4.62-7.62,13.09-7.62,31.58v28.5c0,14.44,4.27,29.84,9.47,37.93.56.96.74,1.54.74,1.92,0,.77-.74.96-2.6.96h-18.76Z" fill="#8e331a"/><path d="M458.63,655.9c1.67,0,2.97,1.16,2.79,2.89l-.56,3.85c-.37,2.7,1.86,3.47,3.34.96,2.42-3.66,5.2-7.7,7.43-7.7h20.25c2.42,0,3.9.58,5.76,2.12,6.32,5.2,16.53,30.61,16.53,66.42,0,17.33-2.23,25.8-6.5,33.31-1.3,2.12-4.64,1.73-7.06,1.73h-10.59c-1.86,0-2.79-.19-2.79-.77,0-.38.37-1.16.93-1.92,8.92-14.06,10.59-31.58,10.59-49.87,0-19.83-8.55-31.19-20.99-31.19-8.92,0-16.72,4.04-16.72,20.6v22.33c0,14.44,6.13,29.84,11.33,37.93.56.96.74,1.54.74,1.92,0,.77-.74.96-2.6.96h-32.14c-1.86,0-2.79-.19-2.79-.96,0-.38.37-.96.93-1.92,5.2-8.09,9.66-23.68,9.66-37.93v-18.68c0-18.48-2.23-36.77-7.62-41.4-.93-.77-1.3-1.35-1.3-1.73,0-.58.93-.96,3.16-.96h18.21Z" fill="#8e331a"/><path d="M583.47,759.49c-1.67,0-2.97-1.16-2.79-2.89l.56-3.85c.37-2.7-1.86-3.47-3.34-.96-2.42,3.66-5.2,7.7-7.43,7.7h-24.34c-15.23,0-18.21-18.29-18.21-34.66,0-25.99,7.06-57.18,15.23-65.65.37-.77,2.97-3.27,7.25-3.27h22.48c5.39,0,10.77,21.56,10.77-1.93,0-15.79-1.67-21.37-7.8-26.38-.74-.77-1.3-1.35-1.3-1.93s1.11-.96,3.16-.96h15.42c3.9,0,4.64,5.39,4.64,15.59v78.36c0,14.25,4.27,29.84,9.47,37.93.56.96.93,1.54.93,1.92,0,.77-.93.96-2.79.96h-21.92ZM562.48,736c15.05,0,20.81-6.55,20.81-24.26v-20.02c0-13.86-5.76-15.98-20.81-15.98-10.96,0-20.99,13.86-20.99,30.42,0,20.41,7.25,29.84,20.99,29.84Z" fill="#8e331a"/><path d="M614.87,758.53c0-.38.37-.96.93-1.92,5.2-8.09,9.47-23.68,9.47-37.93v-28.5c0-18.48-2.23-26.96-7.62-31.58-.93-.77-1.3-1.35-1.3-1.73,0-.58.93-.96,3.16-.96h18.76c1.67,0,2.97,1.16,2.79,2.89l-.56,3.85c-.37,2.7,1.86,3.47,3.34.96,2.42-3.66,5.2-7.7,7.43-7.7h8.73c8.17,0,11.7,3.85,13.75,11.36,7.43,27.34.93,31.77-15.61,31.77-3.71,0-3.16-2.12-1.3-3.66,3.53-3.08,5.76-7.7,5.76-12.13,0-4.81-4.09-7.7-8.73-7.7-9.1,0-13.75,10.4-13.75,27.34v15.79c0,14.44,4.46,29.84,9.48,37.93.56.96.93,1.54.93,1.92,0,.77-.93.96-2.79.96h-30.1c-1.86,0-2.79-.19-2.79-.96Z" fill="#8e331a"/><path d="M682.3,724.45c0-11.36,2.6-35.43,23.22-35.43,4.09,0,8.36-.38,13.75-.38,6.5,0,8.92,3.46,8.92,7.89l.19,13.86c0,4.43-1.3,6.74-5.39,6.74-3.16,0-5.2-1.35-5.2-3.47,0-.77.37-1.73.93-2.89,3.16-5.97.93-8.86-4.09-8.86-11.15,0-18.76,5.97-18.76,18.68,0,11.94,11.52,15.6,22.48,15.6,13,0,15.42-.19,15.42-12.51v-22.33c0-21.95-3.53-27.34-18.02-27.34-6.13,0-20.06,5.39-25.08,5.39-1.49,0-2.42-.38-2.23-1.73l1.67-15.21c.56-4.43,2.6-6.55,6.87-6.55h32.14c13,0,19.51,14.44,19.51,42.94v26.38c0,18.48,2.42,26.96,7.8,31.38.93.77,1.3,1.35,1.3,1.92s-1.12.96-3.16.96h-17.46c-1.67,0-2.97-1.16-2.79-2.89l.56-3.85c.37-2.7-1.86-3.47-3.34-.96-2.42,3.66-5.2,7.7-7.43,7.7h-27.12c-10.77,0-14.68-18.29-14.68-35.04Z" fill="#8e331a"/><path d="M767.94,759.49c-1.86,0-2.79-.19-2.79-.96,0-.38.37-.96.93-1.92,5.2-8.09,9.47-23.49,9.47-37.93v-28.5c0-18.48-2.23-26.96-7.62-31.58-.93-.77-1.3-1.35-1.3-1.73,0-.58.93-.96,3.16-.96h16.91c3.16,0,3.72.38,3.72,2.7v60.07c0,14.44,4.46,29.84,9.47,37.93.56.96.93,1.54.93,1.92,0,.77-.93.96-2.79.96h-30.1ZM775.55,644.35c-.93,0-1.49,0-1.86-.39-1.49-1.35-1.86-3.85-1.86-6.35,0-5.2,2.04-10.59,4.46-12.32.19,0,.93-.58,2.23-.58h5.76c1.3,0,2.04.58,2.23.58,2.42,1.73,4.46,7.12,4.46,12.32,0,2.5-.37,5.01-1.86,6.35-.37.39-.93.39-1.86.39h-11.7Z" fill="#8e331a"/><path d="M844.66,687.67c0-2.12.19-2.89.93-2.89.56,0,1.12.39,2.04,1.54,1.86,2.12,4.09,3.46,6.32,3.46,5.39,0,6.69-4.43,6.69-7.12,0-3.66-3.9-8.47-14.86-8.47-11.52,0-18.95,7.89-18.95,15.59s7.43,13.48,23.78,15.21c23.22,2.5,28.24,16.37,28.24,29.84,0,7.32-2.23,15.21-5.76,20.99-2.23,3.47-3.53,3.66-5.76,3.66h-46.82c-4.27,0-6.5-2.12-6.87-6.74l-2.42-26.96c-.37-4.43,1.11-6.74,4.46-6.74,8.92,0,11.33,18.29,28.42,18.29,11.33,0,17.46-4.81,17.46-11.94,0-8.66-14.3-8.86-21.18-10.01-17.28-2.89-29.17-14.25-29.17-26.96,0-10.4,4.46-20.79,12.82-29.46.56-.58,2.97-3.08,7.06-3.08h36.78c4.46,0,6.87,2.31,6.87,6.55v29.27c0,4.24-2.42,6.16-6.87,6.16h-20.81c-1.49,0-2.42-.77-2.42-2.12v-8.09Z" fill="#8e331a"/><path d="M891.1,759.49c-1.86,0-2.79-.19-2.79-.96,0-.38.37-.96.93-1.92,5.2-8.09,9.47-23.49,9.47-37.93v-28.5c0-18.48-2.23-26.96-7.62-31.58-.93-.77-1.3-1.35-1.3-1.73,0-.58.93-.96,3.16-.96h16.91c3.16,0,3.72.38,3.72,2.7v60.07c0,14.44,4.46,29.84,9.47,37.93.56.96.93,1.54.93,1.92,0,.77-.93.96-2.79.96h-30.1ZM898.72,644.35c-.93,0-1.49,0-1.86-.39-1.49-1.35-1.86-3.85-1.86-6.35,0-5.2,2.04-10.59,4.46-12.32.19,0,.93-.58,2.23-.58h5.76c1.3,0,2.04.58,2.23.58,2.42,1.73,4.46,7.12,4.46,12.32,0,2.5-.37,5.01-1.86,6.35-.37.39-.93.39-1.86.39h-11.7Z" fill="#8e331a"/><path d="M955.75,655.9c1.67,0,2.97,1.16,2.79,2.89l-.56,3.85c-.37,2.7,1.86,3.47,3.34.96,2.42-3.66,5.2-7.7,7.43-7.7h20.25c2.42,0,3.9.58,5.76,2.12,6.32,5.2,16.53,30.61,16.53,66.42,0,17.33-2.23,25.8-6.5,33.31-1.3,2.12-4.64,1.73-7.06,1.73h-10.59c-1.86,0-2.79-.19-2.79-.77,0-.38.37-1.16.93-1.92,8.92-14.06,10.59-31.58,10.59-49.87,0-19.83-8.55-31.19-20.99-31.19-8.92,0-16.72,4.04-16.72,20.6v22.33c0,14.44,6.13,29.84,11.33,37.93.56.96.74,1.54.74,1.92,0,.77-.74.96-2.6.96h-32.14c-1.86,0-2.79-.19-2.79-.96,0-.38.37-.96.93-1.92,5.2-8.09,9.66-23.68,9.66-37.93v-18.68c0-18.48-2.23-36.77-7.62-41.4-.93-.77-1.3-1.35-1.3-1.73,0-.58.93-.96,3.16-.96h18.21Z" fill="#8e331a"/><path d="M1036.56,791.45l-1.67-13.29c-.19-1.35.74-1.73,2.23-1.73,5.02,0,17.09,5.39,23.22,5.39,14.49,0,18.02-5.39,18.02-27.34v-64.31c0-12.32-2.42-14.44-15.42-14.44-14.68,0-24.34,13.09-24.34,29.46,0,20.79,5.76,29.46,20.62,29.46,2.6,0,5.76-1.35,5.76-4.81,0-1.35-.56-3.08-1.67-5.2-.56-1.16-.93-2.12-.93-2.89,0-2.12,2.04-3.46,5.2-3.46,4.09,0,5.39,2.31,5.39,6.74l-.19,27.73c0,4.43-2.42,6.74-6.87,6.74h-28.79c-2.23,0-4.64,0-5.76-1.93-4.46-6.93-6.32-19.25-6.32-32.73,0-26.18,6.87-57.38,15.05-65.85.56-.58,3.16-3.08,7.06-3.08h21.92c2.23,0,5.02,4.04,7.43,7.7,1.49,2.5,3.72,1.73,3.34-.96l-.56-3.85c-.19-1.73,1.11-2.89,2.79-2.89h17.09c2.04,0,3.16.38,3.16.96s-.37,1.16-1.3,1.92c-5.39,4.43-7.8,12.9-7.8,31.38v64.88c0,28.5-6.5,42.94-19.51,42.94h-30.28c-4.27,0-6.32-2.12-6.87-6.55Z" fill="#8e331a"/><path d="M1116.07,684.21c-.93,0-1.67,0-2.23-.38-1.67-1.93-2.23-5.39-2.23-9.24,0-7.12,2.6-13.48,5.39-15.79.37-.19,1.3-.96,2.79-.96h10.4c1.67,0,2.42.77,2.79.96,2.79,2.31,5.39,8.66,5.39,15.79,0,3.85-.56,7.32-2.23,9.24-.56.38-1.3.38-2.23.38h-17.83ZM1116.07,759.49c-.93,0-1.67,0-2.23-.38-1.67-1.93-2.23-5.39-2.23-9.24,0-7.12,2.6-13.48,5.39-15.79.37-.19,1.3-.96,2.79-.96h10.4c1.67,0,2.42.77,2.79.96,2.79,2.31,5.39,8.66,5.39,15.79,0,3.85-.56,7.32-2.23,9.24-.56.38-1.3.38-2.23.38h-17.83Z" fill="#8e331a"/><path d="M124.9,818.22c1.67,0,2.97,1.16,2.79,2.89l-.56,3.85c-.37,2.7,1.86,3.47,3.34.96,2.42-3.66,5.2-7.7,7.43-7.7h20.25c2.42,0,3.9.58,5.76,2.12,6.32,5.2,16.53,30.61,16.53,66.42,0,17.33-2.23,25.8-6.5,33.31-1.3,2.12-4.64,1.73-7.06,1.73h-10.59c-1.86,0-2.79-.19-2.79-.77,0-.38.37-1.16.93-1.92,8.92-14.06,10.59-31.58,10.59-49.87,0-19.83-8.55-31.19-20.99-31.19-8.92,0-16.72,4.04-16.72,20.6v22.33c0,14.44,6.13,29.84,11.33,37.93.56.96.74,1.54.74,1.92,0,.77-.74.96-2.6.96h-32.14c-1.86,0-2.79-.19-2.79-.96,0-.38.37-.96.93-1.92,5.2-8.09,9.66-23.68,9.66-37.93v-18.68c0-18.48-2.23-36.77-7.62-41.4-.93-.77-1.3-1.35-1.3-1.73,0-.58.93-.96,3.16-.96h18.21Z" fill="#ce6219"/><path d="M206.45,921.81c-2.23,0-4.64,0-5.94-1.93-4.46-6.93-6.32-19.06-6.32-32.73,0-25.99,7.06-57.18,15.23-65.65.56-.58,3.16-3.27,7.06-3.27h25.45c4.27,0,6.69,2.7,7.25,3.27,8.17,8.47,15.23,39.66,15.23,65.65,0,13.67-1.86,25.8-6.32,32.73-1.3,1.93-3.53,1.93-5.94,1.93h-45.7ZM250.3,868.47c0-20.22-10.03-30.42-20.99-30.42s-20.81,10.59-20.81,30.42c0,17.33,7.43,33.31,20.81,33.31s20.99-15.02,20.99-33.31Z" fill="#ce6219"/><path d="M279.83,921.81c-1.86,0-2.79-.19-2.79-.96,0-.38.37-.96.93-1.92,5.2-8.09,9.66-23.68,9.66-37.93v-42.94c-3.9.77-7.43,1.73-10.4,3.27-.74.38-1.3.58-1.86.58-.93,0-1.49-.77-1.49-1.73v-16.37c0-3.08.56-5.39,6.5-4.81,2.23.19,4.83.38,7.25.38-.19-17.14-2.6-25.22-7.8-29.46-.93-.77-1.3-1.35-1.3-1.93s1.11-.96,3.16-.96h17.65c3.53,0,3.53.38,3.53,2.89v28.3c3.72-.58,7.25-1.54,10.03-2.89.74-.39,1.49-.58,2.04-.58.93,0,1.49.77,1.49,1.73v15.98c0,3.27-.56,5.58-6.69,5.01-2.23-.19-4.46-.39-6.87-.39v43.9c0,14.44,4.27,29.84,9.47,37.93.56.96.74,1.54.74,1.92,0,.77-.74.96-2.6.96h-30.65Z" fill="#ce6219"/><path d="M423.8,921.81c-1.67,0-2.97-1.16-2.79-2.89l.56-3.85c.37-2.7-1.86-3.47-3.34-.96-2.42,3.66-5.2,7.7-7.43,7.7h-24.34c-15.23,0-18.21-18.29-18.21-34.66,0-25.99,7.06-57.18,15.23-65.65.37-.77,2.97-3.27,7.25-3.27h22.48c5.39,0,10.77,21.56,10.77-1.93,0-15.79-1.67-21.37-7.8-26.38-.74-.77-1.3-1.35-1.3-1.93s1.11-.96,3.16-.96h15.42c3.9,0,4.64,5.39,4.64,15.59v78.36c0,14.25,4.27,29.84,9.47,37.93.56.96.93,1.54.93,1.92,0,.77-.93.96-2.79.96h-21.92ZM402.81,898.32c15.05,0,20.81-6.55,20.81-24.26v-20.02c0-13.86-5.76-15.98-20.81-15.98-10.96,0-20.99,13.86-20.99,30.42,0,20.41,7.25,29.84,20.99,29.84Z" fill="#ce6219"/><path d="M456.5,886.76c0-11.36,2.6-35.43,23.22-35.43,4.09,0,8.36-.39,13.75-.39,6.5,0,8.92,3.47,8.92,7.89l.19,13.86c0,4.43-1.3,6.74-5.39,6.74-3.16,0-5.2-1.35-5.2-3.47,0-.77.37-1.73.93-2.89,3.16-5.97.93-8.86-4.09-8.86-11.15,0-18.76,5.97-18.76,18.68,0,11.94,11.52,15.6,22.48,15.6,13,0,15.42-.19,15.42-12.51v-22.33c0-21.95-3.53-27.34-18.02-27.34-6.13,0-20.06,5.39-25.08,5.39-1.49,0-2.42-.38-2.23-1.73l1.67-15.21c.56-4.43,2.6-6.55,6.87-6.55h32.14c13,0,19.51,14.44,19.51,42.94v26.38c0,18.48,2.42,26.96,7.8,31.38.93.77,1.3,1.35,1.3,1.92s-1.11.96-3.16.96h-17.46c-1.67,0-2.97-1.16-2.79-2.89l.56-3.85c.37-2.7-1.86-3.47-3.34-.96-2.42,3.66-5.2,7.7-7.43,7.7h-27.12c-10.77,0-14.68-18.29-14.68-35.04Z" fill="#ce6219"/><path d="M543.62,921.81c-1.86,0-2.79-.19-2.79-.96,0-.38.37-.96.93-1.92,5.2-8.09,9.66-23.68,9.66-37.93v-42.94c-3.9.77-7.43,1.73-10.4,3.27-.74.38-1.3.58-1.86.58-.93,0-1.49-.77-1.49-1.73v-16.37c0-3.08.56-5.39,6.5-4.81,2.23.19,4.83.38,7.25.38-.19-17.14-2.6-25.22-7.8-29.46-.93-.77-1.3-1.35-1.3-1.93s1.11-.96,3.16-.96h17.65c3.53,0,3.53.38,3.53,2.89v28.3c3.72-.58,7.25-1.54,10.03-2.89.74-.39,1.49-.58,2.04-.58.93,0,1.49.77,1.49,1.73v15.98c0,3.27-.56,5.58-6.69,5.01-2.23-.19-4.46-.39-6.87-.39v43.9c0,14.44,4.27,29.84,9.47,37.93.56.96.74,1.54.74,1.92,0,.77-.74.96-2.6.96h-30.65Z" fill="#ce6219"/><path d="M588.58,886.76c0-11.36,2.6-35.43,23.22-35.43,4.09,0,8.36-.39,13.75-.39,6.5,0,8.92,3.47,8.92,7.89l.19,13.86c0,4.43-1.3,6.74-5.39,6.74-3.16,0-5.2-1.35-5.2-3.47,0-.77.37-1.73.93-2.89,3.16-5.97.93-8.86-4.09-8.86-11.15,0-18.76,5.97-18.76,18.68,0,11.94,11.52,15.6,22.48,15.6,13,0,15.42-.19,15.42-12.51v-22.33c0-21.95-3.53-27.34-18.02-27.34-6.13,0-20.06,5.39-25.08,5.39-1.49,0-2.42-.38-2.23-1.73l1.67-15.21c.56-4.43,2.6-6.55,6.87-6.55h32.14c13,0,19.51,14.44,19.51,42.94v26.38c0,18.48,2.42,26.96,7.8,31.38.93.77,1.3,1.35,1.3,1.92s-1.11.96-3.16.96h-17.46c-1.67,0-2.97-1.16-2.79-2.89l.56-3.85c.37-2.7-1.86-3.47-3.34-.96-2.42,3.66-5.2,7.7-7.43,7.7h-27.12c-10.78,0-14.68-18.29-14.68-35.04Z" fill="#ce6219"/><path d="M712.86,920.84c0-.38.37-.96.93-1.92,5.2-8.09,9.47-23.68,9.47-37.93v-28.5c0-18.48-2.23-26.96-7.62-31.58-.93-.77-1.3-1.35-1.3-1.73,0-.58.93-.96,3.16-.96h18.76c1.67,0,2.97,1.16,2.79,2.89l-.56,3.85c-.37,2.7,1.86,3.47,3.34.96,2.42-3.66,5.2-7.7,7.43-7.7h8.73c8.17,0,11.7,3.85,13.75,11.36,7.43,27.34.93,31.77-15.61,31.77-3.71,0-3.16-2.12-1.3-3.66,3.53-3.08,5.76-7.7,5.76-12.13,0-4.81-4.09-7.7-8.73-7.7-9.1,0-13.75,10.4-13.75,27.34v15.79c0,14.44,4.46,29.84,9.47,37.93.56.96.93,1.54.93,1.92,0,.77-.93.96-2.79.96h-30.1c-1.86,0-2.79-.19-2.79-.96Z" fill="#ce6219"/><path d="M794.04,921.81c-2.23,0-3.53-.19-5.76-3.66-3.34-5.39-6.32-17.52-6.32-31,0-26.18,7.06-57.57,15.05-65.85.74-.77,3.16-3.08,7.06-3.08h39.01c4.46,0,7.06,2.31,7.06,6.55v37.93c0,4.24-2.6,6.74-7.06,6.74h-36.78c-1.49,0-2.42-.96-2.42-2.31v-10.21c0-2.12.19-2.89.74-2.89.37,0,1.3.58,1.67.96,3.53,2.7,10.96,4.04,16.53,4.04,10.4,0,13-4.81,13-11.17,0-7.7-7.99-9.82-15.23-9.82-17.46,0-24.34,12.32-24.34,30.23,0,15.4,6.69,31.38,22.48,31.38,17.09,0,18.02-18.29,26.94-18.29,3.34,0,4.83,2.31,4.46,6.74l-2.42,26.96c-.37,4.62-2.6,6.74-6.87,6.74h-46.82Z" fill="#ce6219"/><path d="M877.26,921.81c-2.23,0-4.64,0-5.76-1.93-4.46-6.93-6.32-19.25-6.32-32.73,0-26.18,6.87-57.38,15.05-65.85.56-.58,3.16-3.08,7.06-3.08h39.2c4.46,0,7.06,2.31,7.06,6.55v30.81c0,4.24-2.6,6.74-7.06,6.74h-21.92c-1.49,0-2.42-.96-2.42-2.31v-8.47c0-1.93.37-2.89.93-2.89s1.3.58,2.04,1.54c1.67,1.92,3.9,3.47,6.32,3.47,5.57,0,7.8-2.12,7.8-6.93s-3.71-8.66-15.23-8.66c-14.68,0-24.34,13.86-24.34,30.23s7.62,31.19,22.48,31.19,20.81-18.1,26.94-18.1c3.53,0,4.83,2.12,4.46,6.74l-2.42,26.96c-.37,4.43-2.42,6.74-6.87,6.74h-47Z" fill="#ce6219"/><path d="M948.97,921.81c-1.86,0-2.79-.19-2.79-.96,0-.38.37-.96.93-1.92,5.2-8.09,9.47-23.49,9.47-37.93v-28.5c0-18.48-2.23-26.96-7.62-31.58-.93-.77-1.3-1.35-1.3-1.73,0-.58.93-.96,3.16-.96h16.91c3.16,0,3.72.38,3.72,2.7v60.07c0,14.44,4.46,29.84,9.47,37.93.56.96.93,1.54.93,1.92,0,.77-.93.96-2.79.96h-30.1ZM956.58,806.67c-.93,0-1.49,0-1.86-.39-1.49-1.35-1.86-3.85-1.86-6.35,0-5.2,2.04-10.59,4.46-12.32.19,0,.93-.58,2.23-.58h5.76c1.3,0,2.04.58,2.23.58,2.42,1.73,4.46,7.12,4.46,12.32,0,2.5-.37,5.01-1.86,6.35-.37.39-.93.39-1.86.39h-11.7Z" fill="#ce6219"/><path d="M994.48,921.81c-1.86,0-2.79-.19-2.79-.96,0-.38.37-.96.93-1.92,5.2-8.09,9.66-23.68,9.66-37.93v-42.94c-3.9.77-7.43,1.73-10.4,3.27-.74.38-1.3.58-1.86.58-.93,0-1.49-.77-1.49-1.73v-16.37c0-3.08.56-5.39,6.5-4.81,2.23.19,4.83.38,7.25.38-.19-17.14-2.6-25.22-7.8-29.46-.93-.77-1.3-1.35-1.3-1.93s1.12-.96,3.16-.96h17.65c3.53,0,3.53.38,3.53,2.89v28.3c3.72-.58,7.25-1.54,10.03-2.89.74-.39,1.49-.58,2.04-.58.93,0,1.49.77,1.49,1.73v15.98c0,3.27-.56,5.58-6.69,5.01-2.23-.19-4.46-.39-6.87-.39v43.9c0,14.44,4.27,29.84,9.47,37.93.56.96.74,1.54.74,1.92,0,.77-.74.96-2.6.96h-30.65Z" fill="#ce6219"/><path d="M1039.44,886.76c0-11.36,2.6-35.43,23.22-35.43,4.09,0,8.36-.39,13.75-.39,6.5,0,8.92,3.47,8.92,7.89l.19,13.86c0,4.43-1.3,6.74-5.39,6.74-3.16,0-5.2-1.35-5.2-3.47,0-.77.37-1.73.93-2.89,3.16-5.97.93-8.86-4.09-8.86-11.15,0-18.76,5.97-18.76,18.68,0,11.94,11.52,15.6,22.48,15.6,13,0,15.42-.19,15.42-12.51v-22.33c0-21.95-3.53-27.34-18.02-27.34-6.13,0-20.06,5.39-25.08,5.39-1.49,0-2.42-.38-2.23-1.73l1.67-15.21c.56-4.43,2.6-6.55,6.87-6.55h32.14c13,0,19.51,14.44,19.51,42.94v26.38c0,18.48,2.42,26.96,7.8,31.38.93.77,1.3,1.35,1.3,1.92s-1.12.96-3.16.96h-17.46c-1.67,0-2.97-1.16-2.79-2.89l.56-3.85c.37-2.7-1.86-3.47-3.34-.96-2.42,3.66-5.2,7.7-7.43,7.7h-27.12c-10.77,0-14.68-18.29-14.68-35.04Z" fill="#ce6219"/><path d="M1126.56,921.81c-1.86,0-2.79-.19-2.79-.96,0-.38.37-.96.93-1.92,5.2-8.09,9.66-23.68,9.66-37.93v-42.94c-3.9.77-7.43,1.73-10.4,3.27-.74.38-1.3.58-1.86.58-.93,0-1.49-.77-1.49-1.73v-16.37c0-3.08.56-5.39,6.5-4.81,2.23.19,4.83.38,7.25.38-.19-17.14-2.6-25.22-7.8-29.46-.93-.77-1.3-1.35-1.3-1.93s1.12-.96,3.16-.96h17.65c3.53,0,3.53.38,3.53,2.89v28.3c3.72-.58,7.25-1.54,10.03-2.89.74-.39,1.49-.58,2.04-.58.93,0,1.49.77,1.49,1.73v15.98c0,3.27-.56,5.58-6.69,5.01-2.23-.19-4.46-.39-6.87-.39v43.9c0,14.44,4.27,29.84,9.47,37.93.56.96.74,1.54.74,1.92,0,.77-.74.96-2.6.96h-30.65Z" fill="#ce6219"/><path d="M1174.3,921.81c-1.86,0-2.79-.19-2.79-.96,0-.38.37-.96.93-1.92,5.2-8.09,9.47-23.49,9.47-37.93v-28.5c0-18.48-2.23-26.96-7.62-31.58-.93-.77-1.3-1.35-1.3-1.73,0-.58.93-.96,3.16-.96h16.91c3.16,0,3.72.38,3.72,2.7v60.07c0,14.44,4.46,29.84,9.47,37.93.56.96.93,1.54.93,1.92,0,.77-.93.96-2.79.96h-30.1ZM1181.92,806.67c-.93,0-1.49,0-1.86-.39-1.49-1.35-1.86-3.85-1.86-6.35,0-5.2,2.04-10.59,4.46-12.32.19,0,.93-.58,2.23-.58h5.76c1.3,0,2.04.58,2.23.58,2.42,1.73,4.46,7.12,4.46,12.32,0,2.5-.37,5.01-1.86,6.35-.37.39-.93.39-1.86.39h-11.7Z" fill="#ce6219"/><path d="M1228.92,921.81c-2.23,0-4.64,0-5.95-1.93-4.46-6.93-6.32-19.06-6.32-32.73,0-25.99,7.06-57.18,15.23-65.65.56-.58,3.16-3.27,7.06-3.27h25.45c4.27,0,6.69,2.7,7.25,3.27,8.17,8.47,15.23,39.66,15.23,65.65,0,13.67-1.86,25.8-6.32,32.73-1.3,1.93-3.53,1.93-5.95,1.93h-45.7ZM1272.76,868.47c0-20.22-10.03-30.42-20.99-30.42s-20.81,10.59-20.81,30.42c0,17.33,7.43,33.31,20.81,33.31s20.99-15.02,20.99-33.31Z" fill="#ce6219"/><path d="M1319.95,818.22c1.67,0,2.97,1.16,2.79,2.89l-.56,3.85c-.37,2.7,1.86,3.47,3.34.96,2.42-3.66,5.2-7.7,7.43-7.7h20.25c2.42,0,3.9.58,5.76,2.12,6.32,5.2,16.53,30.61,16.53,66.42,0,17.33-2.23,25.8-6.5,33.31-1.3,2.12-4.64,1.73-7.06,1.73h-10.59c-1.86,0-2.79-.19-2.79-.77,0-.38.37-1.16.93-1.92,8.92-14.06,10.59-31.58,10.59-49.87,0-19.83-8.55-31.19-20.99-31.19-8.92,0-16.72,4.04-16.72,20.6v22.33c0,14.44,6.13,29.84,11.33,37.93.56.96.74,1.54.74,1.92,0,.77-.74.96-2.6.96h-32.14c-1.86,0-2.79-.19-2.79-.96,0-.38.37-.96.93-1.92,5.2-8.09,9.66-23.68,9.66-37.93v-18.68c0-18.48-2.23-36.77-7.62-41.4-.93-.77-1.3-1.35-1.3-1.73,0-.58.93-.96,3.16-.96h18.21Z" fill="#ce6219"/></svg>